#!OML:ASF E:\motion texture\Top Level 1\Subject 1\Session 1\male.ASF
:FULLY-SPECIFIED
:DEGREES
213
root 29.5653 17.8161 5.66637 336.817 -84.7937 -340.005
lowerback 6.94455 -5.72715 -5.91664
upperback -1.84497 -8.05443 3.0162
thorax -4.55991 -3.79473 7.25685
lowerneck -23.3354 -0.454441 -2.67008
upperneck 19.3688 -0.83724 4.4086
head 10.0461 -0.0643615 1.87368
rclavicle 2.32578e-014 -1.59028e-014
rhumerus -62.8974 -8.13989 -52.7673
rradius 24.6198
rwrist 14.4914
rhand -4.9603 -7.34337
rfingers 7.12502
rthumb 20.8316 -36.245
lclavicle 2.32578e-014 -1.59028e-014
lhumerus 3.12523 -17.8171 83.9643
lradius 47.6883
lwrist -2.59078
lhand -7.83456 12.9867
lfingers 7.12502
lthumb 18.068 42.1675
rfemur -84.9791 -13.4457 19.481
rtibia 86.4361
rfoot 205.351 -44.4314
rtoes 22.4245
lfemur 5.82038 0.452759 -24.3125
ltibia 18.0496
lfoot 345.604 -1.10932
ltoes 1.66392
214
root 29.4447 17.8216 5.65296 337.358 -84.5327 -340.441
lowerback 6.90771 -5.78147 -5.9941
upperback -1.86175 -8.13255 3.008
thorax -4.53511 -3.83228 7.29216
lowerneck -23.3674 -0.499076 -2.69443
upperneck 19.3541 -0.895998 4.43635
head 10.0493 -0.0894829 1.87869
rclavicle -6.11263e-014 7.95139e-016
rhumerus -63.133 -8.32336 -52.6752
rradius 24.4538
rwrist 14.6039
rhand -4.85576 -7.30034
rfingers 7.12502
rthumb 20.932 -36.1909
lclavicle -6.11263e-014 7.95139e-016
lhumerus 3.45685 -17.82 83.8269
lradius 47.786
lwrist -2.61577
lhand -7.8018 12.924
lfingers 7.12502
lthumb 18.0995 42.1019
rfemur -85.1465 -13.6203 19.6993
rtibia 87.7608
rfoot 206.02 -56.1715
rtoes 22.1394
lfemur 6.2204 0.375152 -24.2672
ltibia 17.8491
lfoot 345.681 -1.31774
ltoes 1.22752
215
root 29.3239 17.8257 5.63894 337.747 -84.2677 -340.696
lowerback 6.87888 -5.82726 -6.08897
upperback -1.91169 -8.20167 3.00596
thorax -4.54796 -3.86193 7.34677
lowerneck -23.3709 -0.547586 -2.73166
upperneck 19.3384 -0.953738 4.45405
head 10.0469 -0.116706 1.8822
rclavicle 4.86029e-014 1.59028e-015
rhumerus -63.3572 -8.44804 -52.6746
rradius 24.3374
rwrist 14.6789
rhand -4.76006 -7.26787
rfingers 7.12502
rthumb 21.0239 -36.1483
lclavicle 4.86029e-014 1.59028e-015
lhumerus 3.67221 -17.8024 83.7675
lradius 47.8953
lwrist -2.63956
lhand -7.79477 12.856
lfingers 7.12502
lthumb 18.1063 42.0332
rfemur -85.1853 -13.8005 19.8836
rtibia 88.601
rfoot 207.334 -67.9285
rtoes 21.8756
lfemur 6.57211 0.269691 -24.2345
ltibia 17.6765
lfoot 345.756 -1.55013
ltoes 0.7208
216
root 29.2027 17.8283 5.6244 337.978 -84.0072 -340.759
lowerback 6.82502 -5.86363 -6.1922
upperback -1.97219 -8.25786 3.00064
thorax -4.55917 -3.88471 7.39922
lowerneck -23.3683 -0.60191 -2.77715
upperneck 19.3157 -1.0173 4.47518
head 10.0413 -0.146885 1.88727
rclavicle -4.28381e-014 1.43125e-014
rhumerus -63.5412 -8.56325 -52.7549
rradius 24.2466
rwrist 14.7484
rhand -4.68443 -7.2454
rfingers 7.12502
rthumb 21.0966 -36.1177
lclavicle -4.28381e-014 1.43125e-014
lhumerus 3.81169 -17.7741 83.7577
lradius 48.0105
lwrist -2.67165
lhand -7.8226 12.8024
lfingers 7.12502
lthumb 18.0795 41.9821
rfemur -85.1045 -13.9722 20.0287
rtibia 88.8802
rfoot 211.137 -79.6983
rtoes 21.6742
lfemur 6.87668 0.148472 -24.2145
ltibia 17.5251
lfoot 345.829 -1.80051
ltoes 0.160764
217
root 29.0813 17.8297 5.60977 338.016 -83.7516 -340.595
lowerback 6.73261 -5.892 -6.3045
upperback -2.03875 -8.30227 2.98866
thorax -4.55663 -3.90196 7.44416
lowerneck -23.3465 -0.658449 -2.82607
upperneck 19.2732 -1.0828 4.49821
head 10.0254 -0.178215 1.89292
rclavicle -1.98785e-016 1.59028e-015
rhumerus -63.6737 -8.67798 -52.9111
rradius 24.1732
rwrist 14.8097
rhand -4.62185 -7.21851
rfingers 7.12502
rthumb 21.1567 -36.0841
lclavicle -1.98785e-016 1.59028e-015
lhumerus 3.88449 -17.7371 83.7878
lradius 48.1268
lwrist -2.71864
lhand -7.87069 12.762
lfingers 7.12502
lthumb 18.0333 41.946
rfemur -84.9175 -14.1362 20.1283
rtibia 88.5781
rfoot 349.887 -88.0328
rtoes 21.5394
lfemur 7.13191 0.016949 -24.2191
ltibia 17.3985
lfoot 345.898 -2.05883
ltoes -0.449692
218
root 28.9595 17.8295 5.59494 337.912 -83.5118 -340.254
lowerback 6.62447 -5.90759 -6.42018
upperback -2.12641 -8.32944 2.97426
thorax -4.57026 -3.90908 7.48706
lowerneck -23.3215 -0.720236 -2.89746
upperneck 19.243 -1.15399 4.54342
head 10.0139 -0.211269 1.90947
rclavicle -3.4837e-014 -1.66979e-014
rhumerus -63.7749 -8.77529 -53.136
rradius 24.1243
rwrist 14.8441
rhand -4.57469 -7.1983
rfingers 7.12502
rthumb 21.202 -36.0588
lclavicle -3.4837e-014 -1.66979e-014
lhumerus 3.86996 -17.6945 83.8692
lradius 48.2422
lwrist -2.79076
lhand -7.94535 12.7333
lfingers 7.12502
lthumb 17.9614 41.9239
rfemur -84.6322 -14.2774 20.1899
rtibia 87.7314
rfoot 381.027 -76.4753
rtoes 21.4744
lfemur 7.34042 -0.122366 -24.2421
ltibia 17.2915
lfoot 345.962 -2.30745
ltoes -1.09932
219
root 28.8371 17.8278 5.5801 337.7 -83.2868 -339.772
lowerback 6.47087 -5.91283 -6.53011
upperback -2.20785 -8.3396 2.95017
thorax -4.5567 -3.90963 7.50889
lowerneck -23.3095 -0.786419 -2.96074
upperneck 19.2024 -1.23293 4.58754
head 10.0013 -0.247222 1.92307
rclavicle -8.86083e-014 3.18055e-015
rhumerus -63.808 -8.90424 -53.4213
rradius 24.081
rwrist 14.8653
rhand -4.53955 -7.17746
rfingers 7.12502
rthumb 21.2358 -36.0342
lclavicle -8.86083e-014 3.18055e-015
lhumerus 3.81755 -17.65 83.9721
lradius 48.3497
lwrist -2.89265
lhand -8.02194 12.7099
lfingers 7.12502
lthumb 17.8877 41.9072
rfemur -84.2542 -14.3982 20.2145
rtibia 86.4331
rfoot 383.836 -64.6098
rtoes 21.5068
lfemur 7.50753 -0.265162 -24.2825
ltibia 17.2019
lfoot 346.017 -2.54354
ltoes -1.7728
220
root 28.714 17.8246 5.56534 337.38 -83.082 -339.16
lowerback 6.27263 -5.90756 -6.63149
upperback -2.27626 -8.332 2.91531
thorax -4.50993 -3.90392 7.50655
lowerneck -23.3142 -0.855821 -3.02169
upperneck 19.1506 -1.3182 4.64019
head 9.9882 -0.284632 1.93832
rclavicle -3.73218e-014 1.66979e-014
rhumerus -63.7757 -9.05439 -53.7811
rradius 24.0645
rwrist 14.8527
rhand -4.51779 -7.15327
rfingers 7.12502
rthumb 21.2567 -36.0077
lclavicle -3.73218e-014 1.66979e-014
lhumerus 3.73225 -17.6028 84.0898
lradius 48.4486
lwrist -3.0141
lhand -8.10012 12.7027
lfingers 7.12502
lthumb 17.8125 41.9069
rfemur -83.7807 -14.4926 20.204
rtibia 84.8198
rfoot 385.192 -52.7303
rtoes 21.6359
lfemur 7.64896 -0.408286 -24.3389
ltibia 17.1193
lfoot 346.064 -2.75738
ltoes -2.46181
221
root 28.59 17.8197 5.5507 336.98 -82.8932 -338.45
lowerback 6.09168 -5.89047 -6.73387
upperback -2.36765 -8.31001 2.88326
thorax -4.49918 -3.88837 7.51149
lowerneck -23.3122 -0.929536 -3.09505
upperneck 19.1096 -1.40509 4.69021
head 9.97797 -0.324159 1.95454
rclavicle -7.46933e-014 -3.97569e-015
rhumerus -63.7123 -9.18102 -54.1845
rradius 24.079
rwrist 14.7941
rhand -4.49758 -7.15123
rfingers 7.12502
rthumb 21.2761 -36.0034
lclavicle -7.46933e-014 -3.97569e-015
lhumerus 3.5533 -17.5413 84.2635
lradius 48.5422
lwrist -3.15907
lhand -8.16914 12.6903
lfingers 7.12502
lthumb 17.7461 41.9005
rfemur -83.2063 -14.5649 20.1574
rtibia 83.0626
rfoot 386.124 -40.8769
rtoes 21.8318
lfemur 7.77602 -0.55873 -24.4132
ltibia 17.0419
lfoot 346.098 -2.94291
ltoes -3.15702
222
root 28.465 17.813 5.53605 336.551 -82.7191 -337.705
lowerback 5.89722 -5.86768 -6.82631
upperback -2.45415 -8.27849 2.84712
thorax -4.47927 -3.86909 7.50412
lowerneck -23.3112 -1.00331 -3.17157
upperneck 19.0556 -1.49131 4.74456
head 9.96346 -0.363046 1.97276
rclavicle -4.22914e-014 -2.62396e-014
rhumerus -63.5852 -9.31147 -54.6462
rradius 24.1195
rwrist 14.6997
rhand -4.48411 -7.1599
rfingers 7.12502
rthumb 21.289 -36.0106
lclavicle -4.22914e-014 -2.62396e-014
lhumerus 3.3171 -17.4691 84.4586
lradius 48.6331
lwrist -3.30734
lhand -8.22766 12.6883
lfingers 7.12502
lthumb 17.6898 41.9036
rfemur -82.5256 -14.617 20.0793
rtibia 81.3467
rfoot 386.866 -29.0587
rtoes 22.0492
lfemur 7.90185 -0.714959 -24.4953
ltibia 16.9622
lfoot 346.12 -3.10403
ltoes -3.84702
